<svg display="none" xmlns="http://www.w3.org/2000/svg">
    <symbol id="union-icon" viewBox="0 0 54 24">
        <g>
            <path
            fill-rule="evenodd"
            clip-rule="evenodd"
            d="M12 3.84C7.49335 3.84 3.84 7.49336 3.84 12C3.84 16.5056 7.49168 20.1583 11.9969 20.16H12C12.0026 20.16 12.0052 20.16 12.0078 20.16C16.5109 20.1558 20.16 16.504 20.16 12C20.16 7.49336 16.5066 3.84 12 3.84ZM20.7986 20.16C22.7853 18.0188 24 15.1513 24 12C24 5.37258 18.6274 0 12 0C5.37258 0 0 5.37258 0 12C0 18.6274 5.37258 24 12 24C12.0032 24 12.0063 24 12.0095 24H41.1111C41.1143 24 41.1175 24 41.1206 24C47.748 24 53.1206 18.6274 53.1206 12C53.1206 5.37258 47.748 0 41.1206 0C34.4932 0 29.1206 5.37258 29.1206 12C29.1206 15.1513 30.3353 18.0188 32.322 20.16H20.7986ZM41.1235 20.16L41.12 20.16H41.1128C36.6098 20.1558 32.9606 16.504 32.9606 12C32.9606 7.49336 36.614 3.84 41.1206 3.84C45.6273 3.84 49.2806 7.49336 49.2806 12C49.2806 16.5057 45.6288 20.1584 41.1235 20.16Z"
            fill="#1B63F0"
            />
        </g>
    </symbol>

    <symbol id="certificate" viewBox="0 0 54 54">
        <g>
            <path d="M50.9833 30.668H44.7113V7.20404C44.7113 3.56404 41.7433 0.540039 38.1033 0.540039H38.0473C37.8233 0.540039 37.5433 0.540039 37.3193 0.540039H32.1113H10.2713C4.83928 0.540039 0.359283 4.96404 0.359283 10.452V14.148C0.359283 15.716 1.64728 17.004 3.21528 17.004H8.70328V42.596C8.70328 45.564 11.1113 48.028 14.1353 48.028H20.7993V51.612C20.7993 52.284 21.1913 52.9561 21.8073 53.236C22.0873 53.404 22.3673 53.46 22.7033 53.46C23.0393 53.46 23.4313 53.3481 23.7113 53.1241L27.6313 50.492L31.5513 53.1241C32.1113 53.5161 32.8393 53.516 33.4553 53.236C34.0713 52.9001 34.4633 52.284 34.4633 51.612V47.972C34.5753 48.028 34.7433 48.028 34.8553 48.028H47.7913C48.0153 48.028 48.1833 48.028 48.3513 47.972H48.4073H48.4633C48.5753 47.972 48.7433 47.916 48.9113 47.916C48.9673 47.916 49.0233 47.916 49.0233 47.916C49.0793 47.916 49.1353 47.916 49.1353 47.8601C49.2473 47.8601 49.3033 47.8041 49.4153 47.8041C49.4713 47.8041 49.5833 47.748 49.6393 47.748C49.6953 47.748 49.7513 47.748 49.7513 47.692C49.9193 47.636 50.0873 47.5801 50.1993 47.5241C50.2553 47.5241 50.3113 47.468 50.3113 47.468C50.3673 47.468 50.3673 47.412 50.4233 47.412C50.5913 47.356 50.7033 47.244 50.8713 47.188C50.9833 47.132 51.1513 47.02 51.2633 46.908C51.2633 46.908 51.3193 46.908 51.3193 46.852L51.3753 46.796L51.4313 46.74C51.5433 46.628 51.6553 46.572 51.7673 46.46C51.9353 46.292 52.1593 46.1241 52.2713 45.9C52.3833 45.788 52.5513 45.564 52.6633 45.34C52.6633 45.284 52.7193 45.284 52.7193 45.228C52.7193 45.172 52.7753 45.172 52.7753 45.116C52.7753 45.06 52.8313 45.0601 52.8313 45.0041C52.8873 44.892 52.9433 44.836 52.9993 44.724C53.0553 44.612 53.1113 44.5 53.1673 44.388C53.1673 44.332 53.2233 44.276 53.2233 44.22C53.3353 43.884 53.4473 43.548 53.5033 43.212C53.5593 42.82 53.6153 42.428 53.6153 41.98V33.524C53.8393 31.956 52.5513 30.668 50.9833 30.668ZM3.43928 10.396C3.43928 6.64404 6.51928 3.56404 10.2713 3.56404H31.8313C31.0473 4.68404 30.5993 6.08404 30.5993 7.54004V13.812H3.43928V10.396ZM27.5753 40.58C24.2713 40.58 21.5833 37.892 21.5833 34.588C21.5833 31.284 24.2713 28.652 27.5753 28.652C30.8793 28.652 33.5673 31.34 33.5673 34.644C33.5673 37.948 30.8793 40.58 27.5753 40.58ZM27.5753 46.6841L23.8233 49.148V42.876C24.9433 43.38 26.2313 43.716 27.5753 43.716C28.9193 43.716 30.1513 43.436 31.3273 42.876V49.2041L27.5753 46.6841ZM34.4073 44.892V40.58C35.8073 39.012 36.6473 36.94 36.6473 34.644C36.6473 29.66 32.6153 25.572 27.5753 25.572C22.5913 25.572 18.5033 29.604 18.5033 34.644C18.5033 36.884 19.3433 38.956 20.7433 40.58V44.836H14.0793C12.7913 44.836 11.7273 43.772 11.7273 42.4841V16.892H30.7673C32.3353 16.892 33.6233 15.604 33.6233 14.036V7.59604C33.6233 5.52404 35.2473 3.73204 37.3193 3.62004H38.0473C40.0073 3.62004 41.6313 5.24404 41.6313 7.20404V41.868C41.6313 42.932 41.9113 43.996 42.4153 44.892H34.7993C34.6313 44.836 34.5193 44.836 34.4073 44.892ZM50.6473 42.428C50.5913 42.596 50.5353 42.82 50.4793 42.988C50.4233 43.1 50.3673 43.156 50.3673 43.268L50.2553 43.436C50.1993 43.492 50.1433 43.604 50.0873 43.66L50.0313 43.716C49.9753 43.772 49.9193 43.884 49.8073 43.94C49.7513 43.996 49.6953 44.052 49.5833 44.108L49.5273 44.1641C49.3593 44.2761 49.1913 44.3881 49.0233 44.444C48.9673 44.5 48.9113 44.5 48.8553 44.5C48.7993 44.5 48.7433 44.556 48.6873 44.556L48.5753 44.612C48.5193 44.612 48.4073 44.668 48.3513 44.668H48.2953C48.2393 44.668 48.1273 44.724 48.0713 44.724H47.9593C47.8473 44.724 47.7913 44.724 47.6793 44.724C45.9993 44.724 44.6553 43.38 44.6553 41.7V33.748H50.6473C50.6473 33.748 50.7033 42.26 50.6473 42.428Z" fill="#1B63F0"/>
        </g>
    </symbol>

    <symbol id="compass" viewBox="0 0 40 54">
        <g>
            <path d="M39.4856 43.884L33.2136 29.996C35.3416 28.036 37.0216 25.572 38.1416 22.772C38.4216 21.988 38.0296 21.092 37.2456 20.756C36.4616 20.42 35.5656 20.868 35.2296 21.652C34.4456 23.668 33.2696 25.516 31.8136 27.028L27.5576 17.564C28.2296 16.332 28.5656 14.988 28.5656 13.532C28.5656 9.38801 25.6536 5.97201 21.7896 5.13201V2.44401C21.7896 1.49201 21.0056 0.708008 20.0536 0.708008C19.1016 0.708008 18.3176 1.49201 18.3176 2.44401V5.13201C14.4536 5.97201 11.5416 9.38801 11.5416 13.532C11.5416 14.988 11.9336 16.388 12.5496 17.564L8.29364 27.028C6.83764 25.516 5.71764 23.724 4.87764 21.652C4.54164 20.868 3.70164 20.476 2.86164 20.756C2.07764 21.092 1.68564 21.932 1.96564 22.772C3.08564 25.628 4.76564 28.036 6.89364 29.996L0.621641 43.884L0.39764 51.388C0.39764 52.116 0.78964 52.788 1.46164 53.124C1.68564 53.236 1.96564 53.292 2.18964 53.292C2.63764 53.292 3.08564 53.124 3.42164 52.788L8.85364 47.636L14.7896 34.476C16.4696 34.924 18.2056 35.204 19.9976 35.204C21.7896 35.204 23.5256 34.924 25.2056 34.476L31.1416 47.636L36.5736 52.788C36.9096 53.124 37.3576 53.292 37.8056 53.292C38.0296 53.292 38.3096 53.236 38.5336 53.124C39.2056 52.844 39.6536 52.172 39.5976 51.388L39.4856 43.884ZM17.2536 21.596L13.2216 30.556C12.3256 30.164 11.4856 29.66 10.6456 29.1L14.6776 20.196C15.4616 20.812 16.3016 21.26 17.2536 21.596ZM25.4296 20.196L29.4616 29.1C28.6776 29.66 27.7816 30.164 26.8856 30.556L22.8536 21.596C23.8056 21.26 24.6456 20.812 25.4296 20.196ZM20.0536 8.04401C23.0776 8.04401 25.5416 10.508 25.5416 13.532C25.5416 16.556 23.0776 19.02 20.0536 19.02C17.0296 19.02 14.5656 16.556 14.5656 13.532C14.5656 10.508 17.0296 8.04401 20.0536 8.04401ZM6.38964 45.788L3.58964 48.42L3.70164 44.612L9.41364 31.956C10.2536 32.516 11.0936 32.964 11.9896 33.356L6.38964 45.788ZM20.0536 32.068C18.7096 32.068 17.4216 31.9 16.1336 31.62L20.0536 22.94L23.9736 31.62C22.6856 31.9 21.3976 32.068 20.0536 32.068ZM33.7176 45.788L28.1176 33.412C29.0136 33.02 29.8536 32.516 30.6936 32.012L36.4056 44.612L36.5176 48.42L33.7176 45.788Z" fill="#1B63F0"/>
        </g>
    </symbol> 

    <symbol id="telescope" viewBox="0 0 44 54">
        <g>
           <path d="M4.864 53.0222H43.336C43.336 51.3982 35.776 50.0542 26.088 49.8862V46.4702C26.144 46.4702 26.2 46.4702 26.256 46.4702C35.44 45.3502 42.44 37.5102 42.44 28.1582C42.44 22.9502 40.2 17.9662 36.336 14.4942C35.888 14.1022 35.384 13.7102 34.936 13.3182L37.344 8.9502C38.24 7.3262 37.624 5.3102 36 4.4142L30.512 1.3902C28.888 0.494195 26.872 1.1102 25.976 2.7342L15.224 22.5022C14.328 24.1262 14.944 26.1422 16.568 27.0382L22.056 30.0622C22.56 30.2862 23.12 30.3982 23.68 30.3982C24.016 30.3982 24.296 30.3422 24.632 30.2862C25.472 30.0622 26.2 29.4462 26.592 28.6622L33.424 16.1182C33.704 16.3422 33.984 16.5662 34.264 16.8462C37.456 19.7582 39.304 23.9022 39.304 28.2142C39.304 35.9422 33.48 42.4942 25.808 43.3902C24.464 43.5582 23.12 43.5022 21.776 43.3342C17.52 42.7182 13.824 40.3662 11.472 36.8942H26.144C26.984 36.8942 27.712 36.2222 27.712 35.3262C27.712 34.4302 27.04 33.7582 26.2 33.7582H2.232C1.392 33.7582 0.664001 34.4302 0.664001 35.3262C0.664001 36.2222 1.336 36.8942 2.232 36.8942H7.888C10.632 41.9902 15.56 45.5182 21.384 46.4142C21.44 46.4142 21.552 46.4142 21.608 46.4142V49.9422C12.144 50.0542 4.864 51.3982 4.864 53.0222ZM23.904 27.2062C23.848 27.2622 23.792 27.3182 23.736 27.3182C23.68 27.3182 23.624 27.3182 23.568 27.3182L18.08 24.2942C17.968 24.2382 17.912 24.0702 17.968 23.9582L28.664 4.3022C28.72 4.1902 28.888 4.1342 29 4.1902L34.488 7.2142C34.6 7.2702 34.656 7.4382 34.6 7.5502L23.904 27.2062Z" fill="#1B63F0"/>
        </g>
    </symbol>   

    <symbol id="list" viewBox="0 0 38 54">
        <g>
            <path d="M6.764 3.56389H36.332C37.172 3.56389 37.9 2.89189 37.9 1.99589C37.9 1.09989 37.172 0.483887 36.332 0.483887H6.764C3.348 0.483887 0.547999 3.00389 0.155999 6.30789C0.0999987 6.41989 0.0999985 6.58789 0.0999985 6.75589V48.6439C0.0999985 51.3319 2.284 53.5159 4.972 53.5159H35.268C36.388 53.5159 37.34 52.5639 37.34 51.4439V12.8599C37.34 11.7399 36.388 10.7879 35.268 10.7879H6.764C4.804 10.7879 3.124 9.10789 3.124 7.14789C3.124 5.18789 4.804 3.56389 6.764 3.56389ZM6.764 13.8679H34.26V50.4359H4.972C3.964 50.4359 3.18 49.6519 3.18 48.6439V12.8039C4.188 13.4759 5.42 13.8679 6.764 13.8679Z" fill="#1B63F0"/>
            <path d="M26.0844 44.1079H11.8604C11.0204 44.1079 10.2924 44.7799 10.2924 45.6759C10.2924 46.5719 10.9644 47.2439 11.8604 47.2439H26.0284C26.8684 47.2439 27.5964 46.5719 27.5964 45.6759C27.5964 44.7799 26.9244 44.1079 26.0844 44.1079Z" fill="#1B63F0"/>
            <path d="M10.4036 23.7799H27.4836C28.0996 23.7799 28.6036 23.2759 28.6036 22.6599V19.2999C28.6036 18.6839 28.0996 18.1799 27.4836 18.1799H10.4036C9.78759 18.1799 9.28359 18.6839 9.28359 19.2999V22.6599C9.28359 23.2759 9.78759 23.7799 10.4036 23.7799Z" fill="#1B63F0"/>
        </g>
    </symbol>  

    <symbol id="arrow-left" viewBox="0 0 9 14">
        <g>
            <path d="M7.5 13L1.5 7L7.5 1" stroke="#64BE97" stroke-width="2" stroke-linecap="round" stroke-linejoin="round"/>
        </g>
    </symbol>

    <symbol id="arrow-right" viewBox="0 0 9 14">
        <g>
            <path d="M1.5 13L7.5 7L1.5 1" stroke="#64BE97" stroke-width="2" stroke-linecap="round" stroke-linejoin="round"/>
        </g>
    </symbol> 
     
    <symbol id="play" viewBox="0 0 14 18">
        <g>
           <path d="M0 0L14 9L0 18V0Z" fill="white"/>
        </g>
    </symbol>  

    <symbol id="calendar" viewBox="0 0 20 20" fill="none"> 
        <g>
            <path d="M15.8333 3.33337H4.16667C3.24619 3.33337 2.5 4.07957 2.5 5.00004V16.6667C2.5 17.5872 3.24619 18.3334 4.16667 18.3334H15.8333C16.7538 18.3334 17.5 17.5872 17.5 16.6667V5.00004C17.5 4.07957 16.7538 3.33337 15.8333 3.33337Z" stroke="#838383" stroke-width="1.5" stroke-linecap="round" stroke-linejoin="round"/>
            <path d="M13.333 1.66675V5.00008" stroke="#838383" stroke-width="1.5" stroke-linecap="round" stroke-linejoin="round"/>
            <path d="M6.66699 1.66675V5.00008" stroke="#838383" stroke-width="1.5" stroke-linecap="round" stroke-linejoin="round"/>
            <path d="M2.5 8.33337H17.5" stroke="#838383" stroke-width="1.5" stroke-linecap="round" stroke-linejoin="round"/>
        </g>
    </symbol> 

    <symbol id="clock" viewBox="0 0 20 20" fill="none">
        <g clip-path="url(#clip0_1_523)">
            <path d="M10.0003 18.3334C14.6027 18.3334 18.3337 14.6025 18.3337 10.0001C18.3337 5.39771 14.6027 1.66675 10.0003 1.66675C5.39795 1.66675 1.66699 5.39771 1.66699 10.0001C1.66699 14.6025 5.39795 18.3334 10.0003 18.3334Z" stroke="#838383" stroke-width="1.5" stroke-linecap="round" stroke-linejoin="round"/>
            <path d="M10 5V10L13.3333 11.6667" stroke="#838383" stroke-width="1.5" stroke-linecap="round" stroke-linejoin="round"/>
        </g>
    </symbol>   

    <symbol id="location" viewBox="0 0 20 20" fill="none">
        <g>
            <path d="M17.5 8.33337C17.5 14.1667 10 19.1667 10 19.1667C10 19.1667 2.5 14.1667 2.5 8.33337C2.5 6.34425 3.29018 4.4366 4.6967 3.03007C6.10322 1.62355 8.01088 0.833374 10 0.833374C11.9891 0.833374 13.8968 1.62355 15.3033 3.03007C16.7098 4.4366 17.5 6.34425 17.5 8.33337Z" stroke="#838383" stroke-width="1.5" stroke-linecap="round" stroke-linejoin="round"/>
            <path d="M10 10.8334C11.3807 10.8334 12.5 9.71409 12.5 8.33337C12.5 6.95266 11.3807 5.83337 10 5.83337C8.61929 5.83337 7.5 6.95266 7.5 8.33337C7.5 9.71409 8.61929 10.8334 10 10.8334Z" stroke="#838383" stroke-width="1.5" stroke-linecap="round" stroke-linejoin="round"/>
        </g>
    </symbol>  

    <symbol id="chain" viewBox="0 0 24 24" fill="none">
        <g>
            <path d="M10 13C10.4295 13.5741 10.9774 14.0492 11.6066 14.3929C12.2357 14.7367 12.9315 14.9411 13.6467 14.9923C14.3618 15.0436 15.0796 14.9404 15.7513 14.6898C16.4231 14.4392 17.0331 14.0471 17.54 13.54L20.54 10.54C21.4508 9.59699 21.9548 8.33398 21.9434 7.02299C21.932 5.71201 21.4061 4.45795 20.4791 3.53091C19.5521 2.60387 18.298 2.07802 16.987 2.06663C15.676 2.05524 14.413 2.55921 13.47 3.47L11.75 5.18" stroke="white" stroke-width="2" stroke-linecap="round" stroke-linejoin="round"/>
            <path d="M14 11C13.5705 10.4259 13.0226 9.95082 12.3935 9.60706C11.7643 9.2633 11.0685 9.05888 10.3534 9.00767C9.63821 8.95645 8.92041 9.05963 8.24866 9.31022C7.5769 9.5608 6.96689 9.95293 6.46 10.46L3.46 13.46C2.54921 14.403 2.04524 15.666 2.05663 16.977C2.06802 18.288 2.59387 19.5421 3.52091 20.4691C4.44795 21.3961 5.70201 21.922 7.013 21.9334C8.32398 21.9448 9.58699 21.4408 10.53 20.53L12.24 18.82" stroke="white" stroke-width="2" stroke-linecap="round" stroke-linejoin="round"/>
        </g>
    </symbol>  

    <symbol id="pen" viewBox="0 0 24 24" fill="none">
        <g>
            <path d="M12 19L19 12L22 15L15 22L12 19Z" stroke="white" stroke-width="2" stroke-linecap="round" stroke-linejoin="round"/>
            <path d="M18 13L16.5 5.5L2 2L5.5 16.5L13 18L18 13Z" stroke="white" stroke-width="2" stroke-linecap="round" stroke-linejoin="round"/>
            <path d="M2 2L9.586 9.586" stroke="white" stroke-width="2" stroke-linecap="round" stroke-linejoin="round"/>
            <path d="M11 13C12.1046 13 13 12.1046 13 11C13 9.89543 12.1046 9 11 9C9.89543 9 9 9.89543 9 11C9 12.1046 9.89543 13 11 13Z" stroke="white" stroke-width="2" stroke-linecap="round" stroke-linejoin="round"/>
        </g>
    </symbol> 

    <symbol id="case" viewBox="0 0 24 24" fill="none">
        <g>
            <path d="M20 7H4C2.89543 7 2 7.89543 2 9V19C2 20.1046 2.89543 21 4 21H20C21.1046 21 22 20.1046 22 19V9C22 7.89543 21.1046 7 20 7Z" stroke="white" stroke-width="2" stroke-linecap="round" stroke-linejoin="round"/>
            <path d="M16 21V5C16 4.46957 15.7893 3.96086 15.4142 3.58579C15.0391 3.21071 14.5304 3 14 3H10C9.46957 3 8.96086 3.21071 8.58579 3.58579C8.21071 3.96086 8 4.46957 8 5V21" stroke="white" stroke-width="2" stroke-linecap="round" stroke-linejoin="round"/>
        </g>
    </symbol>   

    <symbol id="book" viewBox="0 0 24 24" fill="none">
        <g>
            <path d="M2 3H8C9.06087 3 10.0783 3.42143 10.8284 4.17157C11.5786 4.92172 12 5.93913 12 7V21C12 20.2044 11.6839 19.4413 11.1213 18.8787C10.5587 18.3161 9.79565 18 9 18H2V3Z" stroke="white" stroke-width="2" stroke-linecap="round" stroke-linejoin="round"/>
            <path d="M22 3H16C14.9391 3 13.9217 3.42143 13.1716 4.17157C12.4214 4.92172 12 5.93913 12 7V21C12 20.2044 12.3161 19.4413 12.8787 18.8787C13.4413 18.3161 14.2044 18 15 18H22V3Z" stroke="white" stroke-width="2" stroke-linecap="round" stroke-linejoin="round"/>
        </g>
    </symbol>   

    <symbol id="message" viewBox="0 0 20 20" fill="none">
        <g>
            <path d="M19 13C19 13.5304 18.7893 14.0391 18.4142 14.4142C18.0391 14.7893 17.5304 15 17 15H5L1 19V3C1 2.46957 1.21071 1.96086 1.58579 1.58579C1.96086 1.21071 2.46957 1 3 1H17C17.5304 1 18.0391 1.21071 18.4142 1.58579C18.7893 1.96086 19 2.46957 19 3V13Z" stroke="white" stroke-width="2" stroke-linecap="round" stroke-linejoin="round"/>
        </g>
    </symbol>   

    <symbol id="facebook" viewBox="0 0 13 22" fill="none">
        <g>
            <path d="M12 1H9C7.67392 1 6.40215 1.52678 5.46447 2.46447C4.52678 3.40215 4 4.67392 4 6V9H1V13H4V21H8V13H11L12 9H8V6C8 5.73478 8.10536 5.48043 8.29289 5.29289C8.48043 5.10536 8.73478 5 9 5H12V1Z" stroke="#25282B" stroke-width="2" stroke-linecap="round" stroke-linejoin="round"/>
        </g>
    </symbol>  

    <symbol id="instagram" viewBox="0 0 24 24" fill="none">
        <g>
            <path d="M17 2H7C4.23858 2 2 4.23858 2 7V17C2 19.7614 4.23858 22 7 22H17C19.7614 22 22 19.7614 22 17V7C22 4.23858 19.7614 2 17 2Z" stroke="#25282B" stroke-width="2" stroke-linecap="round" stroke-linejoin="round"/>
            <path d="M15.9997 11.3701C16.1231 12.2023 15.981 13.0523 15.5935 13.7991C15.206 14.5459 14.5929 15.1515 13.8413 15.5297C13.0898 15.908 12.2382 16.0397 11.4075 15.906C10.5768 15.7723 9.80947 15.3801 9.21455 14.7852C8.61962 14.1903 8.22744 13.4229 8.09377 12.5923C7.96011 11.7616 8.09177 10.91 8.47003 10.1584C8.84829 9.40691 9.45389 8.7938 10.2007 8.4063C10.9475 8.0188 11.7975 7.87665 12.6297 8.00006C13.4786 8.12594 14.2646 8.52152 14.8714 9.12836C15.4782 9.73521 15.8738 10.5211 15.9997 11.3701Z" stroke="#25282B" stroke-width="2" stroke-linecap="round" stroke-linejoin="round"/>
            <path d="M17.5 6.5H17.51" stroke="#25282B" stroke-width="2" stroke-linecap="round" stroke-linejoin="round"/>        
        </g>
    </symbol>   

     <symbol id="twitter" viewBox="0 0 24 24" fill="none">
        <g>
            <path d="M23 3.00005C22.0424 3.67552 20.9821 4.19216 19.86 4.53005C19.2577 3.83756 18.4573 3.34674 17.567 3.12397C16.6767 2.90121 15.7395 2.95724 14.8821 3.2845C14.0247 3.61176 13.2884 4.19445 12.773 4.95376C12.2575 5.71308 11.9877 6.61238 12 7.53005V8.53005C10.2426 8.57561 8.50127 8.18586 6.93101 7.39549C5.36074 6.60513 4.01032 5.43868 3 4.00005C3 4.00005 -1 13 8 17C5.94053 18.398 3.48716 19.099 1 19C10 24 21 19 21 7.50005C20.9991 7.2215 20.9723 6.94364 20.92 6.67005C21.9406 5.66354 22.6608 4.39276 23 3.00005Z" stroke="#25282B" stroke-width="2" stroke-linecap="round" stroke-linejoin="round"/>
        </g>
    </symbol>  

     <symbol id="youtube" viewBox="0 0 24 24" fill="none">
        <g>
            <path d="M22.5396 6.42C22.4208 5.94541 22.1789 5.51057 21.8382 5.15941C21.4976 4.80824 21.0703 4.55318 20.5996 4.42C18.8796 4 11.9996 4 11.9996 4C11.9996 4 5.1196 4 3.3996 4.46C2.92884 4.59318 2.50157 4.84824 2.16094 5.19941C1.82031 5.55057 1.57838 5.98541 1.4596 6.46C1.14481 8.20556 0.990831 9.97631 0.999595 11.75C0.988374 13.537 1.14236 15.3213 1.4596 17.08C1.59055 17.5398 1.8379 17.9581 2.17774 18.2945C2.51758 18.6308 2.93842 18.8738 3.3996 19C5.1196 19.46 11.9996 19.46 11.9996 19.46C11.9996 19.46 18.8796 19.46 20.5996 19C21.0703 18.8668 21.4976 18.6118 21.8382 18.2606C22.1789 17.9094 22.4208 17.4746 22.5396 17C22.852 15.2676 23.0059 13.5103 22.9996 11.75C23.0108 9.96295 22.8568 8.1787 22.5396 6.42V6.42Z" stroke="#25282B" stroke-width="2" stroke-linecap="round" stroke-linejoin="round"/>
            <path d="M9.75 15.02L15.5 11.75L9.75 8.47998V15.02Z" stroke="#25282B" stroke-width="2" stroke-linecap="round" stroke-linejoin="round"/>        
        </g>
    </symbol>  

</svg>